<svg class="main-svg" xmlns="http://www.w3.org/2000/svg" xmlns:xlink="http://www.w3.org/1999/xlink" width="700" height="500" style="" viewBox="0 0 700 500"><rect x="0" y="0" width="700" height="500" style="fill: rgb(245, 246, 249); fill-opacity: 1;"/><defs id="defs-51e1a1"><g class="clips"><clipPath id="clip51e1a1xyplot" class="plotclip"><rect width="540" height="320"/></clipPath><clipPath class="axesclip" id="clip51e1a1x"><rect x="80" y="0" width="540" height="500"/></clipPath><clipPath class="axesclip" id="clip51e1a1y"><rect x="0" y="100" width="700" height="320"/></clipPath><clipPath class="axesclip" id="clip51e1a1xy"><rect x="80" y="100" width="540" height="320"/></clipPath></g><g class="gradients"/></defs><g class="bglayer"/><g class="layer-below"><g class="imagelayer"/><g class="shapelayer"/></g><g class="cartesianlayer"><g class="subplot xy"><g class="layer-subplot"><g class="shapelayer"/><g class="imagelayer"/></g><g class="gridlayer"><g class="x"><path class="xgrid crisp" transform="translate(124.22,0)" d="M0,100v320" style="stroke: rgb(225, 229, 237); stroke-opacity: 1; stroke-width: 1px;"/><path class="xgrid crisp" transform="translate(208.05,0)" d="M0,100v320" style="stroke: rgb(225, 229, 237); stroke-opacity: 1; stroke-width: 1px;"/><path class="xgrid crisp" transform="translate(292,0)" d="M0,100v320" style="stroke: rgb(225, 229, 237); stroke-opacity: 1; stroke-width: 1px;"/><path class="xgrid crisp" transform="translate(375.84,0)" d="M0,100v320" style="stroke: rgb(225, 229, 237); stroke-opacity: 1; stroke-width: 1px;"/><path class="xgrid crisp" transform="translate(459.79,0)" d="M0,100v320" style="stroke: rgb(225, 229, 237); stroke-opacity: 1; stroke-width: 1px;"/><path class="xgrid crisp" transform="translate(543.63,0)" d="M0,100v320" style="stroke: rgb(225, 229, 237); stroke-opacity: 1; stroke-width: 1px;"/></g><g class="y"><path class="ygrid crisp" transform="translate(0,340.65999999999997)" d="M80,0h540" style="stroke: rgb(225, 229, 237); stroke-opacity: 1; stroke-width: 1px;"/><path class="ygrid crisp" transform="translate(0,278)" d="M80,0h540" style="stroke: rgb(225, 229, 237); stroke-opacity: 1; stroke-width: 1px;"/><path class="ygrid crisp" transform="translate(0,215.34)" d="M80,0h540" style="stroke: rgb(225, 229, 237); stroke-opacity: 1; stroke-width: 1px;"/><path class="ygrid crisp" transform="translate(0,152.69)" d="M80,0h540" style="stroke: rgb(225, 229, 237); stroke-opacity: 1; stroke-width: 1px;"/></g></g><g class="zerolinelayer"><path class="yzl zl crisp" transform="translate(0,403.32)" d="M80,0h540" style="stroke: rgb(225, 229, 237); stroke-opacity: 1; stroke-width: 2px;"/></g><path class="xlines-below"/><path class="ylines-below"/><g class="overlines-below"/><g class="xaxislayer-below"/><g class="yaxislayer-below"/><g class="overaxes-below"/><g class="plot" transform="translate(80,100)" clip-path="url('#clip51e1a1xyplot')"><g class="scatterlayer mlayer"><g class="trace scatter trace688814" style="stroke-miterlimit: 2; opacity: 1;"><g class="fills"/><g class="errorbars"/><g class="lines"><path class="js-line" d="M0,303.32L0.46,304L0.57,300.55L1.38,298.11L1.61,298.11L2.07,298.11L2.18,295.62L3.1,295.62L3.22,293.42L4.48,293.38L4.59,287.34L4.71,274.66L5.4,278.15L5.51,278.23L5.97,283.23L6.78,266.15L6.89,267.33L7.01,271.32L7.24,268.49L7.69,268.1L7.92,269.69L8.04,269.12L8.38,274.61L9.42,262.56L9.53,262.86L9.65,264.46L9.99,264.09L10.11,259.04L10.22,256.48L10.45,259.36L10.8,259.34L10.91,261.84L11.25,259.82L11.6,264.52L11.71,262.68L11.94,268.48L12.4,264.16L12.52,263.02L12.63,263.42L12.75,267.2L12.86,268.08L13.21,266.01L13.32,264.68L14.13,261.44L14.24,261.44L14.36,260.04L14.93,261.54L15.04,261.4L15.27,264.99L15.62,257.71L16.08,249.5L16.42,251.25L16.54,252.25L17.23,247.39L17.34,247.71L17.46,245.39L18.03,248.04L18.38,247.78L18.49,246.43L19.18,245.65L19.29,246.16L19.64,246.3L19.75,245.75L19.98,247.68L20.1,247.56L20.44,247.74L20.67,248.73L21.25,248.24L21.36,248.24L25.61,247.99L25.73,248.71L26.3,247.67L26.41,247.94L26.53,250.29L27.1,252.86L27.22,252.73L27.33,250.77L28.48,251L28.6,251.87L28.83,252.25L28.94,251.63L29.29,251.63L29.4,251.63L31.01,251.23L31.12,249.75L31.93,249.13L32.04,249.13L33.53,249.13L33.65,248.26L34.11,247.84L34.45,248.52L34.57,247.96L36.18,247.78L36.52,247.78L39.16,247.65L39.28,246.88L40.54,250.38L40.66,250.16L41.57,249.65L41.69,250.33L41.8,251.27L42.26,252.55L42.38,253.28L43.3,252.06L43.76,252.06L45.02,251.97L45.36,250.28L46.28,250.54L46.4,249.36L47.2,249.81L47.32,249.04L47.89,251.36L48.12,250.46L48.23,250.29L49.04,249.25L49.5,249.36L50.65,249.13L50.99,248.08L51.22,248.28L51.34,247.35L51.45,247.47L51.79,246.6L52.94,248.55L53.06,246.53L54.44,246.18L54.55,246.67L55.93,246.53L56.04,246.16L56.27,247.38L56.73,245.85L56.85,246.36L57.08,249.18L57.42,247.21L57.54,241.15L57.65,241.02L57.77,241.17L57.88,242.82L58.23,243.3L58.34,239.39L58.46,238.12L58.57,240.09L59.15,238.74L59.26,238.11L60.18,237.85L60.29,237.71L61.56,238.58L61.67,238L61.9,239.02L62.36,238.61L62.48,238.41L63.39,237.27L63.51,237.27L65.81,237.27L65.92,236.44L66.27,236.41L66.38,234.88L67.18,234.02L67.3,232.59L67.53,231.63L67.87,233.37L68.1,232.42L68.22,230.8L68.68,227.27L69.02,228.25L69.14,228.45L70.51,230.29L70.63,227.52L71.2,228.89L71.43,228.41L71.55,227.96L75.22,227.3L75.34,227.17L76.14,225.76L76.26,225.88L76.37,226.24L76.72,227.34L76.83,226.66L76.95,223.18L77.64,223.19L77.75,222.39L77.98,221.48L78.44,221.75L78.55,222.42L79.59,228.22L79.93,227.74L80.16,228.43L80.28,226.91L80.39,227.61L80.74,226.84L81.08,227.72L81.77,226.05L82,226.05L83.26,226.79L83.38,227.22L84.18,226.8L84.3,226.8L87.28,227.08L87.4,226.64L88.09,227.4L88.2,225.99L88.43,225.83L88.77,226.41L88.89,226.93L92.45,226.13L92.79,225.63L94.06,225.78L94.4,226.82L95.21,227.19L95.32,226.11L96.47,226.63L96.81,226.73L97.62,225.95L97.73,225.95L102.9,225.53L103.36,223.91L104.28,223.35L104.39,223.77L104.85,224.81L105.31,224.63L105.66,224.83L106,224.21L106.12,224.95L106.46,224.35L106.92,223.14L107.38,223.14L109.1,222.79L109.22,221.99L109.79,220.87L109.91,219.56L110.02,219.7L110.14,221.1L110.48,220.81L110.6,222.09L110.94,225.38L111.28,234.08L112.2,214.69L112.32,215.35L112.89,218.69L113.01,215.98L113.12,215.33L113.24,214.27L113.81,215.11L113.93,215.19L114.73,213.94L114.84,213.94L115.3,214.88L115.53,213.67L115.65,213.67L116.57,213.07L116.91,210.71L117.03,210.26L117.26,210.94L117.37,210.69L117.72,210.72L118.52,205.41L118.63,205.41L120.24,204.97L120.36,205.9L121.16,190.52L121.28,198.12L121.74,199.92L121.85,199.03L121.97,196.15L122.54,195.18L122.77,195.88L122.88,195.6L123,194.82L123.34,195.76L123.46,197.68L123.8,198.59L124.15,196.27L124.38,196.27L124.49,195.25L124.61,196.03L125.07,194.55L125.18,194.03L126.79,194.03L126.9,195L128.63,194.03L128.97,194.03L130,193.94L130.12,194.84L130.69,194.52L131.04,198.59L131.38,198.43L131.61,198.58L131.73,197.87L131.84,197.41L132.53,196.14L132.65,195.46L133.22,195.04L133.33,195.76L134.25,194.34L134.6,194.76L138.96,194.44L139.42,193.12L141.26,192.75L141.37,193.89L142.18,192.35L142.29,191.32L142.75,191.8L142.98,191.18L143.1,190.89L146.77,191L146.89,190.68L147,192.08L147.69,191.66L147.81,191.66L151.02,191.66L151.14,192.87L151.48,192.3L151.6,190.57L151.94,193.22L152.28,194.18L153.32,192.08L153.43,192.81L154.35,192.56L154.7,193.03L155.84,192.06L155.96,192.51L156.42,192.74L156.53,192.89L156.65,192.03L156.76,191.52L157.57,192.44L157.91,190.45L159.63,190.33L159.75,187.89L160.44,190.08L160.67,189.84L160.78,189.84L161.36,189.84L161.47,192.22L162.28,193.81L162.39,193.27L162.96,193.68L163.19,191.82L163.54,193.18L163.65,194.09L163.88,193.63L164.69,195.79L164.8,196.13L165.95,195.44L166.07,196.17L167.1,195.31L167.21,195.7L167.56,195.6L167.67,195.87L167.9,194.72L168.02,195.02L168.36,194.33L168.48,194.72L168.82,193.43L169.17,193.75L169.97,193.81L170.2,193.81L170.77,193.28L170.89,193.97L171,194.39L171.12,195.57L171.58,195.34L171.69,193.4L172.73,195.22L172.84,201.25L173.19,201.21L173.3,201.99L174.1,205.08L174.22,203.85L174.33,203.12L175.02,205.8L175.25,204.76L175.71,204.43L176.4,203.81L176.52,205.27L176.63,205.01L176.75,205.28L176.86,202.08L178.01,201.27L178.12,201.18L181.57,201.31L181.68,201.97L183.29,197.8L183.64,201.18L183.75,199.95L184.1,202.98L184.44,201.03L185.36,199.17L185.47,199.17L186.39,198.19L186.51,198.26L186.97,198.08L187.31,198.58L187.66,197.24L188.69,195.64L188.8,195.95L188.92,195.88L189.72,195.34L190.07,194.47L190.41,195.13L190.53,193.8L190.87,193.75L191.33,194.32L191.68,192.98L192.59,190.54L192.71,190.54L192.82,192.15L193.28,190.39L193.4,191L193.51,190.52L193.63,191.67L193.74,182.77L194.09,182.42L194.2,183.46L194.55,184.65L194.89,184.14L195.01,183.78L196.04,186.91L196.15,186.31L196.5,186.36L196.73,187.51L196.96,186.74L197.3,186.74L199.03,187.25L199.14,187.7L200.06,189.96L200.17,189.58L202.47,189.77L202.59,190.33L203.16,189.56L203.28,191.11L203.73,192.96L203.96,190.99L204.08,191.1L204.19,191.69L204.65,190.32L204.77,189.35L205.69,184.7L205.8,185.63L206.61,184.08L206.95,183.19L207.18,183.88L207.75,183.36L207.87,183.36L210.17,183.36L210.28,184.8L210.63,182.52L210.97,183.94L211.08,184.01L211.89,185.75L212.12,184.26L212.69,183.92L212.81,184.15L212.92,184.79L213.73,184.1L213.84,184.1L214.64,184.01L214.99,182.7L215.33,182.41L215.45,183.07L215.79,185.4L216.83,180.62L216.94,181.14L217.06,180.79L220.16,179.2L220.27,178.78L224.06,178.91L224.18,178.54L225.1,177.91L225.44,177.52L226.36,176.09L226.47,176.12L227.28,180.35L227.51,180.11L227.85,179.71L229.57,179.93L229.69,180.41L230.49,179.93L230.61,179.93L235.09,179.81L235.2,180.22L235.32,180.9L235.55,180.22L235.89,179.65L236.01,179.77L236.12,179.46L236.24,178.76L237.96,177.7L238.3,175.56L239.11,175.57L239.22,175.57L241.86,175.95L241.98,176.54L243.13,175.8L243.24,175.72L243.47,175.75L243.59,176.63L244.05,177.21L244.27,176.4L244.39,176.4L244.73,176.72L244.85,180.46L245.88,176.12L246,175.51L246.57,176.01L246.69,175.62L246.8,177.05L248.18,173.6L248.29,173.95L249.1,173.36L249.21,173.52L249.56,173.44L250.36,172.8L250.48,172.19L250.59,172.08L250.71,172.63L250.82,172.41L251.17,173.15L251.28,172.61L251.51,175.09L251.62,175.78L253,173.71L253.23,173.71L254.61,174.28L254.73,173.41L255.3,173.95L255.41,173.57L255.53,173.52L256.33,173.04L256.45,173.43L257.6,171.84L257.71,172.37L257.94,170.91L258.52,171.37L258.63,171.4L259.32,172.12L259.43,171.04L260.01,172.44L260.35,172.2L260.47,171.91L261.16,166.54L261.27,167.69L261.62,167.3L262.42,166.21L262.54,166.21L263.68,164.99L264.03,164.99L265.18,165.23L265.29,166.97L265.75,167.25L265.87,167.74L266.44,168.04L266.55,167.91L266.67,167.05L267.36,166.37L267.47,165.73L268.28,165.36L268.39,165.36L270.69,165.06L270.8,163.92L271.26,163.38L271.72,163.97L272.07,163.74L272.3,163.72L272.41,165.77L272.87,164.8L272.99,166.25L273.1,165.85L273.22,166.25L274.59,163.91L274.71,164.27L274.82,164.37L277.12,162.18L277.24,162.82L277.35,162.86L277.81,162.83L277.92,161.45L278.15,160.19L278.5,160.43L278.61,162.68L278.73,163.9L278.96,162.58L279.3,162.7L279.42,163.11L280.45,162.64L280.57,158.77L280.91,158.46L281.03,161L281.25,152.66L281.83,153.39L281.94,152.92L282.98,152.28L283.32,152.28L283.67,152.28L283.78,151.23L284.13,151.46L284.24,150.95L284.36,150.21L285.16,150.37L285.27,149.2L285.85,148.37L285.96,148.99L286.08,150.11L286.54,150.18L286.65,149.95L286.77,149.62L287,149.22L287.34,150.11L287.46,150.15L287.57,150.44L287.69,148.86L287.8,152.32L289.41,145.23L289.75,143.92L290.1,142.47L290.56,142.72L290.67,143.84L291.36,141.79L291.59,142.51L291.82,143.13L292.39,142.98L292.51,144.06L292.97,143.45L293.08,144.43L293.2,144.31L293.31,145.05L294.12,146.51L294.23,146.09L294.58,146.28L294.69,147.27L294.92,146.51L295.38,146.22L296.64,146.92L296.99,145.8L298.02,140.09L298.25,140.42L298.6,141.8L298.94,144.81L299.4,143.65L299.52,143.65L300.55,144.08L300.66,142.37L302.04,142.13L302.16,142.13L303.53,140L303.65,140L305.03,138.18L305.14,138.33L305.26,138.8L308.36,138.52L308.47,138.61L308.59,138.43L308.7,138.89L309.05,139.08L309.16,138.99L309.28,139.58L309.39,137.06L309.51,137.15L309.85,136.52L310.77,133.79L310.88,133.77L311.8,135.69L312.26,135.19L312.38,135.12L316.74,134.46L317.2,134.11L319.73,133.61L319.84,134.84L320.76,133.47L321.11,134.19L321.91,133.98L322.02,134.34L322.94,134.04L323.06,134.04L325.47,134.33L325.58,134.59L327.08,134.29L327.19,136.87L327.65,139.11L328,138.42L328.34,138.45L328.46,138.65L328.57,138.18L328.8,138.18L329.15,138.18L330.06,138.18L330.18,139.01L331.21,144.09L331.56,144.71L331.79,143.81L332.36,145.3L332.48,144.83L332.71,146.07L333.28,145.42L333.39,145.22L334.2,143.93L334.31,144.2L334.43,144.55L335.58,144.05L335.69,144.18L335.92,145.36L336.61,145.19L336.72,145.19L340.51,145.69L340.63,144.62L342.12,151.77L342.35,150.42L342.47,149.96L343.27,147.39L343.73,147.69L343.85,147.56L343.96,147.9L344.07,149.28L344.42,149.05L344.53,148.07L346.14,148.98L346.26,148.77L351.2,148.13L351.31,147.31L351.65,146.29L351.88,146.88L352,147.63L352.92,145.44L353.26,145.69L354.53,144.72L354.99,144.95L355.67,146.03L355.79,144.97L361.3,145.19L361.42,144.75L361.53,145.05L361.65,144.79L361.76,143.19L362.22,143.56L362.34,143.94L363.25,150.54L363.37,149.58L364.17,149.41L364.52,149.7L364.75,150.31L364.98,149.86L365.32,149.86L366.24,149.37L366.35,149.37L367.04,152.04L367.39,150.83L367.73,150.83L369,150.3L369.34,150.3L370.26,152.29L370.6,152.01L370.95,152.01L371.18,152.71L371.41,151.26L371.75,151.26L371.98,151.26L372.1,152.27L372.56,153.65L372.67,150.81L372.79,150.62L373.59,157.2L373.82,155.24L374.16,155.36L374.51,154.63L374.62,154.66L374.97,155.77L375.08,155.56L375.43,156.13L375.77,156.13L376.23,155.42L376.58,157.1L376.69,156.55L377.61,155.08L377.72,155.08L379.91,155.61L380.02,154.38L380.83,154.28L380.94,154.62L381.05,155.1L381.51,154.11L381.63,152.25L382.43,153.25L382.55,152.11L383.12,146.62L383.24,147.45L383.35,151.56L383.81,151.29L384.16,153.78L384.27,151.39L385.88,145L386.22,144.74L387.03,143.25L387.14,143.77L387.83,147L388.06,146.03L388.18,146.03L391.05,145.66L391.16,144.75L392.77,145.47L392.88,145.78L393.11,145.93L393.46,144.83L394.61,138.01L394.72,138.03L395.07,138.03L396.1,137.68L396.21,137.68L398.28,137.68L398.4,139.12L399.2,138.25L399.32,138.25L400,138.25L400.12,139.58L400.81,139.83L401.04,139.83L402.65,140.07L402.76,139.19L403.56,139.49L403.91,137.04L404.02,135.66L404.37,137.85L404.71,136.56L404.94,134.91L405.17,136.17L405.52,136.52L405.75,139.33L406.32,138.64L406.44,138.64L406.78,139L407.24,138.65L407.35,138.65L408.27,138.65L408.39,137.8L410.46,137.82L410.57,138.37L411.49,138.14L411.6,138.14L412.29,138.74L412.41,136.57L413.1,135.3L413.21,135.52L413.56,136.44L414.02,130.85L414.36,132.16L414.47,132.64L415.16,126.82L415.39,128.79L415.51,129.44L415.97,129.45L416.08,128.32L416.31,128.01L416.77,128.49L416.89,128.93L417.69,127.34L417.81,127.34L418.38,128.13L418.49,126.27L420.33,125.96L420.45,127L420.79,128.74L421.02,123.29L421.14,123.78L421.25,122.43L421.6,122.49L421.94,122.3L422.05,119.28L423.32,119.13L423.43,118.35L423.66,116.57L424.12,117.11L424.24,119.11L425.04,123.78L425.27,122.94L425.61,124.47L426.53,127.72L426.65,127.81L427.57,125.7L427.68,125.3L428.14,125.19L428.26,125.97L429.75,129.57L429.98,129.19L430.09,129.19L432.16,128.94L432.28,129.97L432.39,130.08L432.51,129.5L432.85,129.26L433.77,128.25L434,128.41L434.46,131.23L434.92,129.49L435.26,130L435.38,131.47L435.49,131.27L435.61,132.02L435.72,133L436.87,135.37L436.98,133.63L437.21,132.31L437.33,132.88L437.67,132.99L438.13,132.75L438.59,133.11L439.4,131.09L439.51,131.13L440.43,132.46L440.54,131.53L440.89,131.53L441.92,131.75L442.04,131.24L442.96,131.17L443.3,132.28L444.22,130.85L444.33,130.85L445.25,131.69L445.37,133.89L446.75,142.45L446.86,144.2L446.98,144.4L447.32,143.22L447.78,137.58L448.24,138.66L448.35,138.78L449.96,140.07L450.08,140.07L455.47,139.53L455.59,139.32L455.7,137.38L456.28,139.15L456.39,139.03L456.97,138.72L457.08,139.64L458.23,139.52L458.58,140.45L459.38,138.92L459.49,138.92L460.3,139.64L460.41,140.35L461.45,139.72L461.79,139.72L462.59,139.39L462.71,138.91L464.32,138.75L464.43,140.11L464.66,141.51L465.24,140.95L465.35,140.95L465.47,141.24L465.93,140.29L466.15,140.21L466.27,141.25L466.84,143.67L466.96,142.94L467.07,142.11L467.42,143.14L467.65,141.5L467.76,140.87L467.88,139.85L468.34,141.09L468.45,141.73L469.26,140.73L469.37,140.74L469.49,140.08L469.83,140.15L469.94,142.99L470.29,153.34L470.63,145.67L470.75,140.27L471.09,143.63L471.44,164.12L471.78,167.13L472.36,114L472.47,137.07L473.16,40.73L473.39,49.84L473.5,38.63L474.08,36.06L474.19,35L474.31,35.42L474.65,27.24L474.88,40.77L475,53.41L475.8,35.3L475.92,35.5L476.26,35.36L476.38,36.65L476.61,33.28L476.72,33.28L477.07,33.28L477.29,34.02L477.41,31.91L477.52,31.54L477.98,32.83L478.1,31.8L479.13,28.4L479.48,28.4L480.4,28.4L480.51,29.34L481.54,27.79L481.89,27.79L482.92,27.79L483.04,22.29L486.83,22.29L486.94,29.52L487.06,29.42L487.17,27.13L487.75,26.78L487.86,27.63L488.43,26.3L488.66,26.63L488.78,26.96L490.27,26.2L490.39,26.55L490.73,27.25L491.54,26.04L491.65,26.17L491.77,26.97L492.68,24.78L492.8,24.78L495.9,24.49L496.01,23.93L497.62,24.56L497.97,25.06L499,30.9L499.23,29.91L499.57,31.55L499.69,31.4L499.8,28.86L506.24,28.86L506.35,30.48L507.15,29.5L507.27,29.5L507.73,29.5L507.84,27.79L508.65,23.6L508.76,23.78L508.88,23.49L510.26,23.49L510.37,21.42L510.48,23.73L510.94,21.35L511.06,21.36L511.17,20.53L511.98,19.41L512.09,19.41L514.5,18.97L514.85,17.72L518.29,17.72L518.41,16.76L518.52,16.36L519.1,16.75L519.21,17.19L520.02,17.89L520.13,16.96L521.74,17.78L522.08,17.23L522.54,16.11L523,16.52L523.69,16.88L523.81,16L529.32,16L529.43,16.93L529.55,17.88L530.24,17.37L530.35,17.85L530.58,17.35L530.93,17.7L531.04,16.44L538.28,16.9L538.39,17.53L539.43,17.18L539.77,17.18L540,17.18" style="vector-effect: non-scaling-stroke; fill: none; stroke: rgb(255, 153, 51); stroke-opacity: 1; stroke-width: 1.3px; opacity: 1;"/></g><g class="points"/><g class="text"/></g></g></g><g class="overplot"/><path class="xlines-above crisp" d="M0,0" style="fill: none;"/><path class="ylines-above crisp" d="M0,0" style="fill: none;"/><g class="overlines-above"/><g class="xaxislayer-above"><g class="xtick"><text text-anchor="middle" x="0" y="433" transform="translate(124.22,0)" style="font-family: 'Open Sans', verdana, arial, sans-serif; font-size: 12px; fill: rgb(77, 86, 99); fill-opacity: 1; white-space: pre;">2010</text></g><g class="xtick"><text text-anchor="middle" x="0" y="433" transform="translate(208.05,0)" style="font-family: 'Open Sans', verdana, arial, sans-serif; font-size: 12px; fill: rgb(77, 86, 99); fill-opacity: 1; white-space: pre;">2012</text></g><g class="xtick"><text text-anchor="middle" x="0" y="433" transform="translate(292,0)" style="font-family: 'Open Sans', verdana, arial, sans-serif; font-size: 12px; fill: rgb(77, 86, 99); fill-opacity: 1; white-space: pre;">2014</text></g><g class="xtick"><text text-anchor="middle" x="0" y="433" transform="translate(375.84,0)" style="font-family: 'Open Sans', verdana, arial, sans-serif; font-size: 12px; fill: rgb(77, 86, 99); fill-opacity: 1; white-space: pre;">2016</text></g><g class="xtick"><text text-anchor="middle" x="0" y="433" transform="translate(459.79,0)" style="font-family: 'Open Sans', verdana, arial, sans-serif; font-size: 12px; fill: rgb(77, 86, 99); fill-opacity: 1; white-space: pre;">2018</text></g><g class="xtick"><text text-anchor="middle" x="0" y="433" transform="translate(543.63,0)" style="font-family: 'Open Sans', verdana, arial, sans-serif; font-size: 12px; fill: rgb(77, 86, 99); fill-opacity: 1; white-space: pre;">2020</text></g></g><g class="yaxislayer-above"><g class="ytick"><text text-anchor="end" x="79" y="4.199999999999999" transform="translate(0,403.32)" style="font-family: 'Open Sans', verdana, arial, sans-serif; font-size: 12px; fill: rgb(77, 86, 99); fill-opacity: 1; white-space: pre;">0</text></g><g class="ytick"><text text-anchor="end" x="79" y="4.199999999999999" transform="translate(0,340.65999999999997)" style="font-family: 'Open Sans', verdana, arial, sans-serif; font-size: 12px; fill: rgb(77, 86, 99); fill-opacity: 1; white-space: pre;">100k</text></g><g class="ytick"><text text-anchor="end" x="79" y="4.199999999999999" transform="translate(0,278)" style="font-family: 'Open Sans', verdana, arial, sans-serif; font-size: 12px; fill: rgb(77, 86, 99); fill-opacity: 1; white-space: pre;">200k</text></g><g class="ytick"><text text-anchor="end" x="79" y="4.199999999999999" transform="translate(0,215.34)" style="font-family: 'Open Sans', verdana, arial, sans-serif; font-size: 12px; fill: rgb(77, 86, 99); fill-opacity: 1; white-space: pre;">300k</text></g><g class="ytick"><text text-anchor="end" x="79" y="4.199999999999999" transform="translate(0,152.69)" style="font-family: 'Open Sans', verdana, arial, sans-serif; font-size: 12px; fill: rgb(77, 86, 99); fill-opacity: 1; white-space: pre;">400k</text></g></g><g class="overaxes-above"/></g></g><g class="polarlayer"/><g class="ternarylayer"/><g class="geolayer"/><g class="funnelarealayer"/><g class="pielayer"/><g class="treemaplayer"/><g class="sunburstlayer"/><g class="glimages"/><defs id="topdefs-51e1a1"><g class="clips"/></defs><g class="layer-above"><g class="imagelayer"/><g class="shapelayer"/></g><g class="infolayer"><g class="g-gtitle"/><g class="g-xtitle"/><g class="g-ytitle"/></g></svg>