<svg class="main-svg" xmlns="http://www.w3.org/2000/svg" xmlns:xlink="http://www.w3.org/1999/xlink" width="700" height="500" style="" viewBox="0 0 700 500"><rect x="0" y="0" width="700" height="500" style="fill: rgb(245, 246, 249); fill-opacity: 1;"/><defs id="defs-61de3e"><g class="clips"><clipPath id="clip61de3exyplot" class="plotclip"><rect width="518" height="320"/></clipPath><clipPath class="axesclip" id="clip61de3ex"><rect x="80" y="0" width="518" height="500"/></clipPath><clipPath class="axesclip" id="clip61de3ey"><rect x="0" y="100" width="700" height="320"/></clipPath><clipPath class="axesclip" id="clip61de3exy"><rect x="80" y="100" width="518" height="320"/></clipPath></g><g class="gradients"/></defs><g class="bglayer"/><g class="layer-below"><g class="imagelayer"/><g class="shapelayer"/></g><g class="cartesianlayer"><g class="subplot xy"><g class="layer-subplot"><g class="shapelayer"/><g class="imagelayer"/></g><g class="gridlayer"><g class="x"><path class="xgrid crisp" transform="translate(168.84,0)" d="M0,100v320" style="stroke: rgb(225, 229, 237); stroke-opacity: 1; stroke-width: 1px;"/><path class="xgrid crisp" transform="translate(260.7,0)" d="M0,100v320" style="stroke: rgb(225, 229, 237); stroke-opacity: 1; stroke-width: 1px;"/><path class="xgrid crisp" transform="translate(352.55,0)" d="M0,100v320" style="stroke: rgb(225, 229, 237); stroke-opacity: 1; stroke-width: 1px;"/><path class="xgrid crisp" transform="translate(445.91,0)" d="M0,100v320" style="stroke: rgb(225, 229, 237); stroke-opacity: 1; stroke-width: 1px;"/><path class="xgrid crisp" transform="translate(537.77,0)" d="M0,100v320" style="stroke: rgb(225, 229, 237); stroke-opacity: 1; stroke-width: 1px;"/></g><g class="y"><path class="ygrid crisp" transform="translate(0,408.18)" d="M80,0h518" style="stroke: rgb(225, 229, 237); stroke-opacity: 1; stroke-width: 1px;"/><path class="ygrid crisp" transform="translate(0,360.72)" d="M80,0h518" style="stroke: rgb(225, 229, 237); stroke-opacity: 1; stroke-width: 1px;"/><path class="ygrid crisp" transform="translate(0,313.26)" d="M80,0h518" style="stroke: rgb(225, 229, 237); stroke-opacity: 1; stroke-width: 1px;"/><path class="ygrid crisp" transform="translate(0,265.8)" d="M80,0h518" style="stroke: rgb(225, 229, 237); stroke-opacity: 1; stroke-width: 1px;"/><path class="ygrid crisp" transform="translate(0,218.34)" d="M80,0h518" style="stroke: rgb(225, 229, 237); stroke-opacity: 1; stroke-width: 1px;"/><path class="ygrid crisp" transform="translate(0,170.88)" d="M80,0h518" style="stroke: rgb(225, 229, 237); stroke-opacity: 1; stroke-width: 1px;"/><path class="ygrid crisp" transform="translate(0,123.42)" d="M80,0h518" style="stroke: rgb(225, 229, 237); stroke-opacity: 1; stroke-width: 1px;"/></g></g><g class="zerolinelayer"/><path class="xlines-below"/><path class="ylines-below"/><g class="overlines-below"/><g class="xaxislayer-below"/><g class="yaxislayer-below"/><g class="overaxes-below"/><g class="plot" transform="translate(80,100)" clip-path="url('#clip61de3exyplot')"><g class="scatterlayer mlayer"><g class="trace scatter trace69b1c3" style="stroke-miterlimit: 2; opacity: 1;"><g class="fills"/><g class="errorbars"/><g class="lines"><path class="js-line" d="M0,102.11L1.51,101.35L3.01,114.92L7.53,116.06L9.03,125.74L10.54,123.46L12.05,125.46L13.55,136.85L18.07,132.76L19.58,138.08L21.08,140.17L22.59,160.58L24.09,162.66L30.12,175.29L31.62,171.97L34.63,167.32L39.15,164.37L42.16,156.87L43.67,166.46L45.17,170.73L49.69,163.8L52.7,187.06L54.21,188.39L55.72,182.98L60.23,176.81L63.24,165.8L64.75,166.18L66.26,168.93L72.28,166.75L73.78,165.32L75.29,167.89L76.8,164.94L81.31,160.67L82.82,157.54L84.33,161.43L85.83,162.57L87.34,178.61L91.85,186.11L93.36,184.12L94.87,190.29L96.37,189.81L97.88,189.05L102.4,194.84L105.41,181.55L106.91,181.93L112.94,205.76L114.44,195.41L115.95,168.17L117.45,171.02L124.98,151.18L126.49,144.91L127.99,159.34L129.5,162.66L134.02,160.2L135.52,144.44L137.03,151.56L138.53,146.72L146.06,148.43L147.57,153.27L149.08,145.96L150.58,156.49L155.1,153.55L156.6,158.68L158.11,152.32L159.62,155.64L161.12,153.74L165.64,150.04L167.15,154.69L168.65,148.43L170.16,142.73L171.66,147.86L176.18,145.1L177.69,139.6L179.19,144.06L180.7,127.73L182.2,114.73L186.72,116.91L188.23,115.96L189.73,125.55L191.24,118.34L192.74,119.38L198.77,112.74L200.27,109.41L201.78,99.35L203.28,96.89L207.8,93.66L209.31,102.58L210.81,109.32L212.32,105.05L213.83,106.47L219.85,99.45L222.86,82.27L224.37,79.8L228.88,85.49L230.39,84.83L231.9,78L233.4,81.41L234.91,96.51L239.42,94.89L242.44,111.03L243.94,108.94L245.45,92.61L249.97,91.28L251.47,105.05L252.98,109.41L254.48,99.35L255.99,113.12L260.51,114.83L262.01,105.24L263.52,96.13L265.02,110.46L266.53,120.24L271.05,124.13L272.55,114.73L274.06,120.14L275.56,114.64L281.59,120.99L283.09,121.75L284.6,135.14L286.1,122.04L287.61,125.55L292.13,133.71L293.63,119.95L295.14,108.37L296.65,103.72L298.15,99.54L302.67,107.33L304.17,115.49L305.68,101.06L307.19,111.5L308.69,109.79L313.21,118.72L314.72,108.75L317.73,105.52L319.23,106.76L323.75,106.09L325.26,86.63L326.76,84.83L328.27,87.77L329.77,69.45L334.29,62.43L335.8,64.99L337.3,62.43L338.81,67.46L340.31,69.83L346.34,82.93L347.84,77.71L349.35,75.53L350.85,71.73L356.88,86.44L358.38,78.95L359.89,77.43L361.4,91.47L367.42,91.28L368.92,88.53L371.94,109.7L376.45,103.05L377.96,110.84L379.47,111.41L380.97,108.37L382.48,113.88L386.99,136.56L388.5,135.99L390.01,154.12L391.51,121.66L393.02,109.41L397.53,125.65L399.04,129.25L400.55,123.56L402.05,119.95L403.56,118.43L408.08,154.88L409.58,123.37L411.09,136.18L412.59,163.71L414.1,178.23L418.62,206.52L420.12,225.69L421.63,213.26L423.13,232.34L424.64,240.59L429.16,209.65L430.66,220.85L432.17,251.79L433.67,235.18L435.18,230.53L439.7,219.81L442.71,256.92L444.22,261L445.72,271.25L450.24,273.25L451.74,240.97L453.25,243.63L454.76,243.06L456.26,245.15L460.78,240.21L462.28,221.23L465.3,264.89L466.8,264.61L471.32,261.38L472.83,273.63L474.33,290.24L475.84,267.36L477.34,285.97L481.86,281.6L483.37,283.12L484.87,292.7L486.38,301.06L487.88,295.08L492.4,291.76L493.91,285.21L495.41,276.38L498.42,278.18L502.94,298.68L504.45,289.19L505.95,284.07L507.46,304L508.97,292.42L513.48,283.5L514.99,280.74L516.49,275.52L518,287.39" style="vector-effect: non-scaling-stroke; fill: none; stroke: rgb(255, 153, 51); stroke-opacity: 1; stroke-width: 1.3px; opacity: 1;"/></g><g class="points"/><g class="text"/></g><g class="trace scatter trace9acdf5" style="stroke-miterlimit: 2; opacity: 1;"><g class="fills"/><g class="errorbars"/><g class="lines"><path class="js-line" d="M0,102.11L1.51,103.28L3.01,119.66L7.53,125.35L9.03,130.06L10.54,127.02L12.05,139.57L13.55,147.41L18.07,142.22L19.58,149.18L21.08,150.45L24.09,171.93L30.12,173.8L31.62,165.95L33.13,143.2L34.63,151.73L39.15,148.1L40.66,144.08L42.16,151.34L43.67,155.65L45.17,143.88L49.69,138.59L51.2,147.51L54.21,164.97L55.72,165.75L60.23,152.81L61.74,152.12L63.24,138.59L64.75,156.73L66.26,158.5L72.28,159.38L73.78,149.87L75.29,129.66L76.8,138.2L81.31,136.63L82.82,116.91L84.33,119.86L85.83,121.23L87.34,131.53L93.36,133.29L94.87,136.82L97.88,153.69L102.4,165.46L103.9,152.22L105.41,146.83L106.91,138.69L108.42,149.38L112.94,155.55L114.44,127.21L115.95,141.33L117.45,132.21L123.48,117.6L124.98,109.56L126.49,106.91L127.99,124.27L129.5,126.13L134.02,159.48L135.52,132.02L137.03,131.92L140.04,140.06L144.56,140.75L146.06,141.14L147.57,143.69L149.08,136.43L150.58,150.16L155.1,143.79L156.6,125.54L158.11,114.07L159.62,116.42L161.12,103.38L165.64,107.3L167.15,119.95L168.65,106.22L170.16,100.83L171.66,105.44L176.18,106.52L177.69,110.64L179.19,103.48L180.7,88.47L182.2,71.7L186.72,69.06L189.73,77.78L191.24,77.29L198.77,52.19L200.27,55.33L201.78,50.32L203.28,57.09L207.8,66.6L209.31,66.31L210.81,78.27L212.32,81.31L213.83,88.47L219.85,71.9L221.35,68.66L222.86,44.34L224.37,34.14L228.88,31.3L230.39,33.85L231.9,21.69L233.4,20.9L234.91,45.03L239.42,34.73L240.93,35.71L242.44,56.31L243.94,58.37L245.45,42.87L249.97,36.79L252.98,29.93L254.48,16L255.99,37.67L260.51,37.09L262.01,52.29L263.52,44.15L265.02,47.68L266.53,40.71L271.05,35.91L272.55,56.7L274.06,83.08L275.56,89.45L281.59,90.53L283.09,81.51L284.6,79.65L286.1,76.31L287.61,77.98L292.13,85.34L293.63,74.84L295.14,71.51L296.65,56.6L298.15,56.99L302.67,63.86L304.17,57.19L305.68,55.52L307.19,72.98L308.69,67.98L313.21,72.19L317.73,48.07L319.23,52.78L325.26,52.48L326.76,59.15L328.27,46.21L329.77,22.77L334.29,28.16L335.8,37.18L337.3,40.03L338.81,35.03L349.35,70.13L350.85,67.98L356.88,68.37L358.38,62.78L359.89,56.5L361.4,63.07L367.42,58.56L368.92,73.18L370.43,81.31L371.94,85.14L376.45,84.55L377.96,79.94L379.47,75.14L380.97,74.74L382.48,70.23L386.99,93.57L388.5,91.02L390.01,119.66L393.02,91.81L397.53,107.5L399.04,105.93L400.55,116.13L402.05,107.5L403.56,119.76L408.08,158.69L409.58,126.62L411.09,138.98L412.59,170.66L414.1,184.29L418.62,204.88L420.12,226.16L421.63,221.75L423.13,230.09L424.64,217.44L429.16,177.82L430.66,201.45L432.17,229.7L433.67,213.61L435.18,213.81L439.7,205.67L441.2,212.93L442.71,234.5L444.22,258.82L445.72,259.51L450.24,261.67L451.74,246.37L453.25,241.46L454.76,233.32L456.26,217.24L460.78,218.61L462.28,215.18L463.79,237.93L465.3,214.98L466.8,207.04L471.32,201.16L472.83,208.71L474.33,231.17L475.84,215.18L477.34,219.5L481.86,225.18L483.37,213.71L484.87,233.13L486.38,249.8L487.88,246.66L492.4,224.2L493.91,225.77L495.41,208.81L498.42,214.98L502.94,241.27L504.45,230.87L505.95,224.4L507.46,239.21L508.97,214L513.48,205.96L514.99,212.14L516.49,204.59L518,222.24" style="vector-effect: non-scaling-stroke; fill: none; stroke: rgb(55, 128, 191); stroke-opacity: 1; stroke-width: 1.3px; opacity: 1;"/></g><g class="points"/><g class="text"/></g></g></g><g class="overplot"/><path class="xlines-above crisp" style="fill: none;" d="M0,0"/><path class="ylines-above crisp" style="fill: none;" d="M0,0"/><g class="overlines-above"/><g class="xaxislayer-above"><g class="xtick"><text text-anchor="middle" x="0" y="433" transform="translate(168.84,0)" style="font-family: 'Open Sans', verdana, arial, sans-serif; font-size: 12px; fill: rgb(77, 86, 99); fill-opacity: 1; white-space: pre;">Mar 2008</text></g><g class="xtick"><text text-anchor="middle" x="0" y="433" transform="translate(260.7,0)" style="font-family: 'Open Sans', verdana, arial, sans-serif; font-size: 12px; fill: rgb(77, 86, 99); fill-opacity: 1; white-space: pre;">May 2008</text></g><g class="xtick"><text text-anchor="middle" x="0" y="433" transform="translate(352.55,0)" style="font-family: 'Open Sans', verdana, arial, sans-serif; font-size: 12px; fill: rgb(77, 86, 99); fill-opacity: 1; white-space: pre;">Jul 2008</text></g><g class="xtick"><text text-anchor="middle" x="0" y="433" transform="translate(445.91,0)" style="font-family: 'Open Sans', verdana, arial, sans-serif; font-size: 12px; fill: rgb(77, 86, 99); fill-opacity: 1; white-space: pre;">Sep 2008</text></g><g class="xtick"><text text-anchor="middle" x="0" y="433" transform="translate(537.77,0)" style="font-family: 'Open Sans', verdana, arial, sans-serif; font-size: 12px; fill: rgb(77, 86, 99); fill-opacity: 1; white-space: pre;">Nov 2008</text></g></g><g class="yaxislayer-above"><g class="ytick"><text text-anchor="end" x="79" y="4.199999999999999" transform="translate(0,408.18)" style="font-family: 'Open Sans', verdana, arial, sans-serif; font-size: 12px; fill: rgb(77, 86, 99); fill-opacity: 1; white-space: pre;">20</text></g><g class="ytick"><text text-anchor="end" x="79" y="4.199999999999999" transform="translate(0,360.72)" style="font-family: 'Open Sans', verdana, arial, sans-serif; font-size: 12px; fill: rgb(77, 86, 99); fill-opacity: 1; white-space: pre;">25</text></g><g class="ytick"><text text-anchor="end" x="79" y="4.199999999999999" transform="translate(0,313.26)" style="font-family: 'Open Sans', verdana, arial, sans-serif; font-size: 12px; fill: rgb(77, 86, 99); fill-opacity: 1; white-space: pre;">30</text></g><g class="ytick"><text text-anchor="end" x="79" y="4.199999999999999" transform="translate(0,265.8)" style="font-family: 'Open Sans', verdana, arial, sans-serif; font-size: 12px; fill: rgb(77, 86, 99); fill-opacity: 1; white-space: pre;">35</text></g><g class="ytick"><text text-anchor="end" x="79" y="4.199999999999999" transform="translate(0,218.34)" style="font-family: 'Open Sans', verdana, arial, sans-serif; font-size: 12px; fill: rgb(77, 86, 99); fill-opacity: 1; white-space: pre;">40</text></g><g class="ytick"><text text-anchor="end" x="79" y="4.199999999999999" transform="translate(0,170.88)" style="font-family: 'Open Sans', verdana, arial, sans-serif; font-size: 12px; fill: rgb(77, 86, 99); fill-opacity: 1; white-space: pre;">45</text></g><g class="ytick"><text text-anchor="end" x="79" y="4.199999999999999" transform="translate(0,123.42)" style="font-family: 'Open Sans', verdana, arial, sans-serif; font-size: 12px; fill: rgb(77, 86, 99); fill-opacity: 1; white-space: pre;">50</text></g></g><g class="overaxes-above"/></g></g><g class="polarlayer"/><g class="ternarylayer"/><g class="geolayer"/><g class="funnelarealayer"/><g class="pielayer"/><g class="treemaplayer"/><g class="sunburstlayer"/><g class="glimages"/><defs id="topdefs-61de3e"><g class="clips"/><clipPath id="legend61de3e"><rect width="80" height="48" x="0" y="0"/></clipPath></defs><g class="layer-above"><g class="imagelayer"/><g class="shapelayer"/></g><g class="infolayer"><g class="legend" pointer-events="all" transform="translate(608.36,100)"><rect class="bg" shape-rendering="crispEdges" style="stroke: rgb(68, 68, 68); stroke-opacity: 1; fill: rgb(245, 246, 249); fill-opacity: 1; stroke-width: 0px;" width="80" height="48" x="0" y="0"/><g class="scrollbox" transform="" clip-path="url('#legend61de3e')"><g class="groups"><g class="traces" style="opacity: 1;" transform="translate(0,14.5)"><text class="legendtext" text-anchor="start" x="40" y="4.680000000000001" style="font-family: 'Open Sans', verdana, arial, sans-serif; font-size: 12px; fill: rgb(77, 86, 99); fill-opacity: 1; white-space: pre;">ADBE</text><g class="layers" style="opacity: 1;"><g class="legendfill"/><g class="legendlines"><path class="js-line" d="M5,0h30" style="fill: none; stroke: rgb(255, 153, 51); stroke-opacity: 1; stroke-width: 1.3px;"/></g><g class="legendsymbols"><g class="legendpoints"/></g></g><rect class="legendtoggle" x="0" y="-9.5" width="74.28125" height="19" style="fill: rgb(0, 0, 0); fill-opacity: 0;"/></g><g class="traces" style="opacity: 1;" transform="translate(0,33.5)"><text class="legendtext" text-anchor="start" x="40" y="4.680000000000001" style="font-family: 'Open Sans', verdana, arial, sans-serif; font-size: 12px; fill: rgb(77, 86, 99); fill-opacity: 1; white-space: pre;">ANSS</text><g class="layers" style="opacity: 1;"><g class="legendfill"/><g class="legendlines"><path class="js-line" d="M5,0h30" style="fill: none; stroke: rgb(55, 128, 191); stroke-opacity: 1; stroke-width: 1.3px;"/></g><g class="legendsymbols"><g class="legendpoints"/></g></g><rect class="legendtoggle" x="0" y="-9.5" width="74.28125" height="19" style="fill: rgb(0, 0, 0); fill-opacity: 0;"/></g></g></g><rect class="scrollbar" rx="20" ry="3" width="0" height="0" style="fill: rgb(128, 139, 164); fill-opacity: 1;" x="0" y="0"/></g><g class="g-gtitle"/><g class="g-xtitle"/><g class="g-ytitle"/></g></svg>