<svg class="main-svg" xmlns="http://www.w3.org/2000/svg" xmlns:xlink="http://www.w3.org/1999/xlink" width="700" height="500" style="" viewBox="0 0 700 500"><rect x="0" y="0" width="700" height="500" style="fill: rgb(255, 255, 255); fill-opacity: 1;"/><defs id="defs-94281e"><g class="clips"><clipPath id="clip94281exyplot" class="plotclip"><rect width="453" height="320"/></clipPath><clipPath class="axesclip" id="clip94281ex"><rect x="80" y="0" width="453" height="500"/></clipPath><clipPath class="axesclip" id="clip94281ey"><rect x="0" y="100" width="700" height="320"/></clipPath><clipPath class="axesclip" id="clip94281exy"><rect x="80" y="100" width="453" height="320"/></clipPath></g><g class="gradients"/></defs><g class="bglayer"/><g class="layer-below"><g class="imagelayer"/><g class="shapelayer"/></g><g class="cartesianlayer"><g class="subplot xy"><g class="layer-subplot"><g class="shapelayer"/><g class="imagelayer"/></g><g class="gridlayer"><g class="x"><path class="xgrid crisp" transform="translate(118.05,0)" d="M0,100v320" style="stroke: rgb(225, 229, 237); stroke-opacity: 1; stroke-width: 1px;"/><path class="xgrid crisp" transform="translate(224.96,0)" d="M0,100v320" style="stroke: rgb(225, 229, 237); stroke-opacity: 1; stroke-width: 1px;"/><path class="xgrid crisp" transform="translate(335.49,0)" d="M0,100v320" style="stroke: rgb(225, 229, 237); stroke-opacity: 1; stroke-width: 1px;"/><path class="xgrid crisp" transform="translate(446.02,0)" d="M0,100v320" style="stroke: rgb(225, 229, 237); stroke-opacity: 1; stroke-width: 1px;"/></g><g class="y"><path class="ygrid crisp" transform="translate(0,381.89)" d="M80,0h453" style="stroke: rgb(225, 229, 237); stroke-opacity: 1; stroke-width: 1px;"/><path class="ygrid crisp" transform="translate(0,333.6)" d="M80,0h453" style="stroke: rgb(225, 229, 237); stroke-opacity: 1; stroke-width: 1px;"/><path class="ygrid crisp" transform="translate(0,237)" d="M80,0h453" style="stroke: rgb(225, 229, 237); stroke-opacity: 1; stroke-width: 1px;"/><path class="ygrid crisp" transform="translate(0,188.70999999999998)" d="M80,0h453" style="stroke: rgb(225, 229, 237); stroke-opacity: 1; stroke-width: 1px;"/><path class="ygrid crisp" transform="translate(0,140.41)" d="M80,0h453" style="stroke: rgb(225, 229, 237); stroke-opacity: 1; stroke-width: 1px;"/></g></g><g class="zerolinelayer"><path class="yzl zl crisp" transform="translate(0,285.3)" d="M80,0h453" style="stroke: rgb(225, 229, 237); stroke-opacity: 1; stroke-width: 2px;"/></g><path class="xlines-below"/><path class="ylines-below"/><g class="overlines-below"/><g class="xaxislayer-below"/><g class="yaxislayer-below"/><g class="overaxes-below"/><g class="plot" transform="translate(80,100)" clip-path="url('#clip94281exyplot')"><g class="scatterlayer mlayer"><g class="trace scatter trace094dc2" style="stroke-miterlimit: 2; opacity: 1;"><g class="fills"/><g class="errorbars"/><g class="lines"><path class="js-line" d="M0,183.2L36.24,182.55L39.86,182.92L47.11,183.73L48.92,184.1L52.55,184.75L57.98,184.76L63.42,184.61L65.23,184.65L97.85,183.91L99.66,183.96L125.03,184.85L126.84,184.58L128.65,183.98L134.09,183.78L139.52,184.26L141.34,184.76L159.46,186.16L161.27,186.17L173.95,184.64L175.76,184.57L197.51,184.78L199.32,184.85L204.76,184.96L210.19,184.82L262.74,185.77L264.55,185.51L273.61,185.43L275.42,185.6L280.86,185.92L286.3,185.92L293.54,185.81L300.79,185.83L313.48,185.65L315.29,185.69L329.78,185.61L331.6,185.78L344.28,184.88L349.72,185.03L364.21,185.14L366.02,185.14L391.39,185.8L393.2,185.91L429.44,185.43L431.26,184.68L453,184.37" style="vector-effect: non-scaling-stroke; fill: none; stroke: rgb(0, 128, 240); stroke-opacity: 1; stroke-width: 1.3px; opacity: 1;"/></g><g class="points"/><g class="text"/></g><g class="trace scatter trace42f544" style="stroke-miterlimit: 2; opacity: 1;"><g class="fills"/><g class="errorbars"/><g class="lines"><path class="js-line" d="M0,75.47L9.06,74.83L10.87,74.19L14.5,73.58L19.93,73.64L32.62,73.53L34.43,73.56L45.3,73.27L47.11,74.31L50.74,71.88L52.55,71.58L57.98,71.56L59.8,70.7L61.61,71.33L63.42,71.11L65.23,71.17L72.48,70.58L74.29,70.09L76.1,68.7L85.16,68.61L86.98,68.87L96.04,68.94L97.85,70.48L103.28,71.06L108.72,71.22L126.84,71.76L128.65,69.69L141.34,68.02L146.77,68.95L148.58,70.29L150.4,70.23L154.02,68.78L159.46,68.68L161.27,68.68L163.08,67.83L164.89,69.4L166.7,68.23L175.76,67.11L177.58,67.07L190.26,66.77L192.07,67.78L212,68.11L213.82,67.98L224.69,68.12L226.5,68.08L248.24,68.73L250.06,68.71L275.42,68.93L277.24,69.26L280.86,69.41L286.3,69.4L291.73,68.69L293.54,68.9L326.16,69.25L327.97,69.43L331.6,70.78L337.03,71.43L340.66,72.57L342.47,72.46L351.53,73.24L353.34,72.93L367.84,73L375.08,73.49L402.26,74.26L404.08,74.54L407.7,74.74L413.14,74.74L420.38,74.7L425.82,74.64L429.44,74.57L431.26,69.09L433.07,68.81L438.5,68.78L445.75,68.74L451.19,68.86L453,68.86" style="vector-effect: non-scaling-stroke; fill: none; stroke: rgb(238, 118, 0); stroke-opacity: 1; stroke-width: 1.3px; opacity: 1;"/></g><g class="points"/><g class="text"/></g><g class="trace scatter trace006ddf" style="stroke-miterlimit: 2; opacity: 1;"><g class="fills"/><g class="errorbars"/><g class="lines"><path class="js-line" d="M0,290.93L19.93,290.97L21.74,291.35L36.24,291.64L39.86,292.7L47.11,293.15L48.92,295.13L50.74,297.12L52.55,297.91L86.98,298.24L88.79,298.09L103.28,297.64L108.72,297.68L126.84,297.4L128.65,298.27L137.71,298.61L139.52,300.17L141.34,301.5L146.77,301.83L148.58,300.02L150.4,300.38L154.02,303.27L159.46,303.65L163.08,304L164.89,301.2L166.7,301.78L172.14,302.34L179.39,302.06L184.82,302.18L192.07,301.71L197.51,301.63L213.82,302.15L215.63,302.46L239.18,302.51L241,302.55L242.81,303.12L248.24,303.18L286.3,302.44L288.11,302.56L318.91,302.32L324.35,301.15L331.6,300.78L337.03,299.46L340.66,296.95L342.47,296.9L356.96,297.19L362.4,297.28L391.39,297.63L393.2,297.86L425.82,296.69L427.63,296.52L429.44,296.29L431.26,300.28L442.13,300.38L443.94,300.39L453,299.88" style="vector-effect: non-scaling-stroke; fill: none; stroke: rgb(48, 144, 84); stroke-opacity: 1; stroke-width: 1.3px; opacity: 1;"/></g><g class="points"/><g class="text"/></g><g class="trace scatter tracef1b70b" style="stroke-miterlimit: 2; opacity: 1;"><g class="fills"/><g class="errorbars"/><g class="lines"><path class="js-line" d="M0,211.01L1.81,177.15L7.25,171.51L9.06,141.07L10.87,132.99L12.68,132.94L14.5,204.62L19.93,182.68L21.74,220.94L23.56,191.66L27.18,181.81L32.62,187.9L34.43,179.62L36.24,219.92L39.86,250.02L45.3,218.84L47.11,240.04L48.92,281.53L50.74,281.49L52.55,241.8L57.98,223.38L59.8,123.81L61.61,171.55L63.42,151.69L65.23,180.61L72.48,134.02L74.29,142.25L76.1,103.01L77.92,156.13L83.35,167.37L85.16,206.37L88.79,175.42L90.6,178.31L96.04,199.72L97.85,196.35L101.47,215.24L103.28,207.24L110.53,180.94L112.34,173.32L114.16,210.16L115.97,200.82L123.22,187.51L125.03,206.51L126.84,168.01L128.65,81.1L134.09,126.59L135.9,191.98L137.71,182.81L139.52,270.84L146.77,254.21L148.58,243.42L150.4,221.1L152.21,283.36L154.02,249.02L159.46,225.27L161.27,199.7L163.08,124.87L164.89,158.15L166.7,111.46L172.14,112.43L173.95,167.86L175.76,187.63L177.58,180.57L179.39,198.74L184.82,200.39L186.64,190.3L188.45,197.26L190.26,143.23L192.07,151.24L197.51,150.02L199.32,183.84L201.13,198.4L202.94,197.63L204.76,185.05L210.19,136.2L213.82,230.82L215.63,222.77L222.88,201.11L224.69,178.12L226.5,174.15L228.31,191.89L230.12,216.95L235.56,187.92L237.37,184.59L239.18,192.89L241,187.63L242.81,235.52L248.24,193.91L250.06,190.31L251.87,213.95L253.68,195.11L255.49,204.05L260.93,167.81L262.74,202.38L264.55,148.31L266.36,176.58L268.18,176.12L273.61,191.01L275.42,186.34L277.24,194.21L279.05,210.74L280.86,163.84L286.3,171.18L288.11,144.96L289.92,141.76L291.73,185.54L293.54,205.54L300.79,214.86L302.6,175.45L304.42,162.53L306.23,181.49L311.66,140.33L313.48,148.09L315.29,175.97L317.1,183.57L318.91,168.54L324.35,170.07L326.16,184.1L327.97,217.6L329.78,190.54L331.6,178.87L337.03,183.61L338.84,175.78L340.66,176.03L342.47,170.97L344.28,203.22L349.72,165.4L351.53,222.48L353.34,152.06L356.96,206.93L362.4,218.19L364.21,180.27L366.02,192.49L367.84,183.95L375.08,180.86L376.9,191.76L378.71,209.52L380.52,210.42L382.33,185.01L391.39,209.59L393.2,213.14L395.02,180.64L400.45,204.01L404.08,219.32L405.89,192.67L407.7,184.36L413.14,187.96L414.95,166.19L416.76,187.22L418.57,180.19L420.38,192.18L425.82,178.6L427.63,193.83L429.44,171.17L431.26,16L433.07,141.09L438.5,168.11L440.32,167.72L442.13,169.66L443.94,184L445.75,161.94L453,190.79" style="vector-effect: non-scaling-stroke; fill: none; stroke: rgb(98, 98, 222); stroke-opacity: 1; stroke-width: 1.3px; opacity: 1;"/></g><g class="points"/><g class="text"/></g></g></g><g class="overplot"/><path class="xlines-above crisp" style="fill: none;" d="M0,0"/><path class="ylines-above crisp" style="fill: none;" d="M0,0"/><g class="overlines-above"/><g class="xaxislayer-above"><g class="xtick"><text text-anchor="middle" x="0" y="433" transform="translate(118.05,0)" style="font-family: 'Computer Modern'; font-size: 12px; fill: rgb(77, 86, 99); fill-opacity: 1; white-space: pre;">Jan 2009</text></g><g class="xtick"><text text-anchor="middle" x="0" y="433" transform="translate(224.96,0)" style="font-family: 'Computer Modern'; font-size: 12px; fill: rgb(77, 86, 99); fill-opacity: 1; white-space: pre;">Mar 2009</text></g><g class="xtick"><text text-anchor="middle" x="0" y="433" transform="translate(335.49,0)" style="font-family: 'Computer Modern'; font-size: 12px; fill: rgb(77, 86, 99); fill-opacity: 1; white-space: pre;">May 2009</text></g><g class="xtick"><text text-anchor="middle" x="0" y="433" transform="translate(446.02,0)" style="font-family: 'Computer Modern'; font-size: 12px; fill: rgb(77, 86, 99); fill-opacity: 1; white-space: pre;">Jul 2009</text></g></g><g class="yaxislayer-above"><g class="ytick"><text text-anchor="end" x="79" y="4.199999999999999" transform="translate(0,381.89)" style="font-family: 'Computer Modern'; font-size: 12px; fill: rgb(77, 86, 99); fill-opacity: 1; white-space: pre;">−1</text></g><g class="ytick"><text text-anchor="end" x="79" y="4.199999999999999" transform="translate(0,333.6)" style="font-family: 'Computer Modern'; font-size: 12px; fill: rgb(77, 86, 99); fill-opacity: 1; white-space: pre;">−0.5</text></g><g class="ytick"><text text-anchor="end" x="79" y="4.199999999999999" transform="translate(0,285.3)" style="font-family: 'Computer Modern'; font-size: 12px; fill: rgb(77, 86, 99); fill-opacity: 1; white-space: pre;">0</text></g><g class="ytick"><text text-anchor="end" x="79" y="4.199999999999999" transform="translate(0,237)" style="font-family: 'Computer Modern'; font-size: 12px; fill: rgb(77, 86, 99); fill-opacity: 1; white-space: pre;">0.5</text></g><g class="ytick"><text text-anchor="end" x="79" y="4.199999999999999" transform="translate(0,188.70999999999998)" style="font-family: 'Computer Modern'; font-size: 12px; fill: rgb(77, 86, 99); fill-opacity: 1; white-space: pre;">1</text></g><g class="ytick"><text text-anchor="end" x="79" y="4.199999999999999" transform="translate(0,140.41)" style="font-family: 'Computer Modern'; font-size: 12px; fill: rgb(77, 86, 99); fill-opacity: 1; white-space: pre;">1.5</text></g></g><g class="overaxes-above"/></g></g><g class="polarlayer"/><g class="ternarylayer"/><g class="geolayer"/><g class="funnelarealayer"/><g class="pielayer"/><g class="treemaplayer"/><g class="sunburstlayer"/><g class="glimages"/><defs id="topdefs-94281e"><g class="clips"/><clipPath id="legend94281e"><rect width="146" height="86" x="0" y="0"/></clipPath></defs><g class="layer-above"><g class="imagelayer"/><g class="shapelayer"/></g><g class="infolayer"><g class="legend" pointer-events="all" transform="translate(542.06,100)"><rect class="bg" shape-rendering="crispEdges" style="stroke: rgb(68, 68, 68); stroke-opacity: 1; fill: rgb(255, 255, 255); fill-opacity: 1; stroke-width: 0px;" width="146" height="86" x="0" y="0"/><g class="scrollbox" transform="" clip-path="url('#legend94281e')"><g class="groups"><g class="traces" style="opacity: 1;" transform="translate(0,14.5)"><text class="legendtext" text-anchor="start" x="40" y="4.680000000000001" style="font-family: 'Computer Modern'; font-size: 12px; fill: rgb(77, 86, 99); fill-opacity: 1; white-space: pre;">Residuals</text><g class="layers" style="opacity: 1;"><g class="legendfill"/><g class="legendlines"><path class="js-line" d="M5,0h30" style="fill: none; stroke: rgb(0, 128, 240); stroke-opacity: 1; stroke-width: 1.3px;"/></g><g class="legendsymbols"><g class="legendpoints"/></g></g><rect class="legendtoggle" x="0" y="-9.5" width="140.8125" height="19" style="fill: rgb(0, 0, 0); fill-opacity: 0;"/></g><g class="traces" style="opacity: 1;" transform="translate(0,33.5)"><text class="legendtext" text-anchor="start" x="40" y="4.680000000000001" style="font-family: 'Computer Modern'; font-size: 12px; fill: rgb(77, 86, 99); fill-opacity: 1; white-space: pre;">Residuals MA</text><g class="layers" style="opacity: 1;"><g class="legendfill"/><g class="legendlines"><path class="js-line" d="M5,0h30" style="fill: none; stroke: rgb(238, 118, 0); stroke-opacity: 1; stroke-width: 1.3px;"/></g><g class="legendsymbols"><g class="legendpoints"/></g></g><rect class="legendtoggle" x="0" y="-9.5" width="140.8125" height="19" style="fill: rgb(0, 0, 0); fill-opacity: 0;"/></g><g class="traces" style="opacity: 1;" transform="translate(0,52.5)"><text class="legendtext" text-anchor="start" x="40" y="4.680000000000001" style="font-family: 'Computer Modern'; font-size: 12px; fill: rgb(77, 86, 99); fill-opacity: 1; white-space: pre;">Residuals Upper BB</text><g class="layers" style="opacity: 1;"><g class="legendfill"/><g class="legendlines"><path class="js-line" d="M5,0h30" style="fill: none; stroke: rgb(48, 144, 84); stroke-opacity: 1; stroke-width: 1.3px;"/></g><g class="legendsymbols"><g class="legendpoints"/></g></g><rect class="legendtoggle" x="0" y="-9.5" width="140.8125" height="19" style="fill: rgb(0, 0, 0); fill-opacity: 0;"/></g><g class="traces" style="opacity: 1;" transform="translate(0,71.5)"><text class="legendtext" text-anchor="start" x="40" y="4.680000000000001" style="font-family: 'Computer Modern'; font-size: 12px; fill: rgb(77, 86, 99); fill-opacity: 1; white-space: pre;">Residuals Lower BB</text><g class="layers" style="opacity: 1;"><g class="legendfill"/><g class="legendlines"><path class="js-line" d="M5,0h30" style="fill: none; stroke: rgb(98, 98, 222); stroke-opacity: 1; stroke-width: 1.3px;"/></g><g class="legendsymbols"><g class="legendpoints"/></g></g><rect class="legendtoggle" x="0" y="-9.5" width="140.8125" height="19" style="fill: rgb(0, 0, 0); fill-opacity: 0;"/></g></g></g><rect class="scrollbar" rx="20" ry="3" width="0" height="0" style="fill: rgb(128, 139, 164); fill-opacity: 1;" x="0" y="0"/></g><g class="g-gtitle"><text class="gtitle" x="35" y="50" text-anchor="start" dy="0em" style="font-family: 'Computer Modern'; font-size: 17px; fill: rgb(77, 86, 99); opacity: 1; font-weight: normal; white-space: pre;">TradingAction.CloseShort CointPair(ADBE, ANSS) - Residuals, BolBands, Residuals MA</text></g><g class="g-xtitle"><text class="xtitle" x="306.5" y="460.20625" text-anchor="middle" style="font-family: 'Computer Modern'; font-size: 14px; fill: rgb(77, 86, 99); opacity: 1; font-weight: normal; white-space: pre;">Time</text></g><g class="g-ytitle"/></g></svg>